<svg width="44" height="48" viewBox="0 0 44 48" fill="none" xmlns="http://www.w3.org/2000/svg">
 <path d="M18.0737 8H31.5892M18.0737 8L2 18.5195M18.0737 8L28.6742 28.8636M18.0737 8L9.5 27M31.5892 8L42 24.9481M31.5892 8L28.6742 28.8636M42 24.9481L27.6034 39.5M42 24.9481L28.6742 28.8636M27.6034 39.5L6.6289 35.7597M27.6034 39.5L28.6742 28.8636M27.6034 39.5L17.5382 33.6558M6.6289 35.7597L2 18.5195M6.6289 35.7597L9.5 27M2 18.5195L9.5 27M28.6742 28.8636L17.5382 33.6558M9.5 27L17.5382 33.6558" stroke="#6938EF" stroke-width="3"/>
 </svg>